<svg width="4085" height="2232" viewBox="0 0 4085 2232" fill="none" xmlns="http://www.w3.org/2000/svg">
<rect width="4085" height="2232" fill="#f5f5f5"/>
<path d="M1880 1072.75C1880 1030.04 1880 1008.68 1888.44 992.427C1895.56 978.729 1906.73 967.56 1920.43 960.444C1936.68 952 1958.04 952 2000.75 952H2084.25C2126.96 952 2148.32 952 2164.57 960.444C2178.27 967.56 2189.44 978.729 2196.56 992.427C2205 1008.68 2205 1030.04 2205 1072.75V1156.25C2205 1198.96 2205 1220.32 2196.56 1236.57C2189.44 1250.27 2178.27 1261.44 2164.57 1268.56C2148.32 1277 2126.96 1277 2084.25 1277H2000.75C1958.04 1277 1936.68 1277 1920.43 1268.56C1906.73 1261.44 1895.56 1250.27 1888.44 1236.57C1880 1220.32 1880 1198.96 1880 1156.25V1072.75Z" fill="#010101"/>
<path d="M2081.13 1064.18L2042.39 1102.92L2003.11 1064.18L2042.39 1024.9L2081.13 1064.18ZM2131.02 1114.06L2092.28 1153.34L2053.53 1114.06L2092.28 1075.32L2131.02 1114.06ZM2031.24 1114.06L1991.97 1153.34L1952.69 1114.06L1991.97 1075.32L2031.24 1114.06ZM2081.13 1164.49L2042.39 1203.23L2003.11 1164.49L2042.39 1125.21L2081.13 1164.49Z" fill="white"/>
</svg>
